# File created by Blade
# Date/Time:  Tue Apr 07 20:29:34 2015
# Frame Rate: 120.000 fps
#------------------------------------------------------
:FULLY-SPECIFIED
:DEGREES
804
root 3.090226 33.778340 -2.284298 -38.464711 32.972607 -39.177469
Spine 12.151959 -1.672161 26.782302
Head 15.095065 -8.957883 13.839110
LeftShoulder -16.501746 43.729206 20.187055
LeftArm 48.802618 -34.492555 -57.363599
LeftForeArm -0.512291 -0.000000 10.665627
LeftHand 6.893479 -0.000000 -9.735871
LeftHandThumb1 -26.253704 0.000000 33.147579
RightShoulder -5.168161 -7.832219 -11.438008
RightArm 10.424957 -5.873234 71.280572
RightForeArm 3.370722 0.000000 19.295811
RightHand 7.511586 -0.000000 7.932661
RightHandThumb1 -24.326973 -0.000000 -32.862282
LeftUpLeg 5.309240 -13.701568 28.138613
LeftLeg 22.523384 -0.000000 -0.000000
LeftFoot -11.572458 -11.565185 -12.507914
LeftToeBase -8.263853 -0.000000 0.000000
RightUpLeg -90.275170 -4.589970 -9.702395
RightLeg 59.946196 -0.000000 -0.000000
RightFoot 44.298874 -2.182102 -2.643028
RightToeBase 33.188725 -0.000000 -0.000000
805
root 3.091280 33.773693 -2.324001 -38.075874 32.801154 -38.937400
Spine 11.983118 -1.665660 26.779071
Head 15.258205 -8.647695 13.618352
LeftShoulder -16.458081 43.625926 20.203617
LeftArm 48.804550 -34.688303 -57.226760
LeftForeArm -0.522671 0.000000 10.662313
LeftHand 6.801565 -0.000000 -9.708988
LeftHandThumb1 -26.253704 0.000000 33.147579
RightShoulder -5.174181 -7.818014 -11.507862
RightArm 10.483402 -6.125723 71.440521
RightForeArm 3.492988 -0.000000 19.344644
RightHand 7.440570 -0.000000 7.892057
RightHandThumb1 -24.326973 -0.000000 -32.862282
LeftUpLeg 5.275660 -13.602812 27.963351
LeftLeg 22.378449 -0.000000 -0.000000
LeftFoot -11.694821 -11.190782 -12.381954
LeftToeBase -8.223812 -0.000000 0.000000
RightUpLeg -90.430978 -4.330828 -9.470534
RightLeg 60.136331 -0.000000 -0.000000
RightFoot 44.236144 -2.110870 -2.546248
RightToeBase 33.214380 -0.000000 -0.000000
806
root 3.089112 33.767237 -2.368702 -37.634949 32.656163 -38.678856
Spine 11.782170 -1.649112 26.740516
Head 15.390570 -8.339459 13.424509
LeftShoulder -16.395315 43.547869 20.237756
LeftArm 48.832512 -34.902049 -57.147656
LeftForeArm -0.483166 -0.000000 10.697441
LeftHand 6.901440 -0.000000 -9.781753
LeftHandThumb1 -26.253704 0.000000 33.147579
RightShoulder -5.117175 -7.809785 -11.571783
RightArm 10.481834 -6.201761 71.630487
RightForeArm 3.381473 -0.000000 19.446407
RightHand 7.341506 -0.000000 7.880434
RightHandThumb1 -24.326973 -0.000000 -32.862282
LeftUpLeg 5.170456 -13.541117 27.765451
LeftLeg 22.258478 -0.000000 -0.000000
LeftFoot -11.806560 -10.837233 -12.334876
LeftToeBase -8.069931 -0.000000 0.000000
RightUpLeg -90.610634 -4.102364 -9.242357
RightLeg 60.263664 -0.000000 -0.000000
RightFoot 44.251218 -2.047141 -2.377116
RightToeBase 33.422060 -0.000000 -0.000000
807
root 3.087118 33.760950 -2.411969 -37.228674 32.510547 -38.402838
Spine 11.630918 -1.692082 26.667865
Head 15.522805 -8.000804 13.259611
LeftShoulder -16.372638 43.486862 20.244855
LeftArm 48.907715 -35.148542 -57.131186
LeftForeArm -0.505166 0.000000 10.701433
LeftHand 6.821654 -0.000000 -9.860770
LeftHandThumb1 -26.253704 0.000000 33.147579
RightShoulder -5.074728 -7.757554 -11.625080
RightArm 10.529809 -6.382615 71.789711
RightForeArm 3.299049 -0.000000 19.517326
RightHand 7.354440 0.000000 8.061378
RightHandThumb1 -24.326973 -0.000000 -32.862282
LeftUpLeg 5.099236 -13.535786 27.535863
LeftLeg 22.163905 -0.000000 -0.000000
LeftFoot -11.893666 -10.466373 -12.246503
LeftToeBase -8.122377 -0.000000 0.000000
RightUpLeg -90.748840 -3.825308 -9.060890
RightLeg 60.426255 -0.000000 -0.000000
RightFoot 44.302159 -1.863765 -2.379078
RightToeBase 33.209942 -0.000000 -0.000000
